<?xml version="1.0" encoding="utf-8"?>
<!-- Generator: Adobe Illustrator 16.0.4, SVG Export Plug-In . SVG Version: 6.00 Build 0)  -->
<!DOCTYPE svg PUBLIC "-//W3C//DTD SVG 1.1//EN" "http://www.w3.org/Graphics/SVG/1.1/DTD/svg11.dtd">
<svg version="1.1" id="Layer_1" xmlns="http://www.w3.org/2000/svg" xmlns:xlink="http://www.w3.org/1999/xlink" x="0px" y="0px"
	 width="502px" height="191px" viewBox="0 0 502 191" enable-background="new 0 0 502 191" xml:space="preserve">
<g>
	<path fill="#F39000" d="M126.836,63.443c-0.15,0-0.304-0.012-0.46-0.035l-46.042-6.97c-2.31-0.351-4.189-2.708-4.189-5.256V32.644
		c0-1.987,1.126-3.322,2.804-3.322c0.358,0,0.733,0.063,1.111,0.189l46.231,15.197c1.973,0.646,3.641,3.184,3.641,5.544v9.511
		C129.931,61.862,128.6,63.443,126.836,63.443"/>
	<path fill="#F39000" d="M79.928,93.186c-2.121,0-3.784-1.835-3.784-4.18V70.471c0-2.347,1.665-4.184,3.792-4.184
		c0.105,0,0.214,0.003,0.325,0.013l46.005,4.079c2.021,0.182,3.665,2.247,3.665,4.605v9.505c0,2.36-1.644,4.425-3.663,4.604
		L80.259,93.17C80.15,93.181,80.037,93.186,79.928,93.186"/>
	<path fill="#F39000" d="M78.951,130.15c-1.68,0-2.807-1.333-2.807-3.32v-18.536c0-2.552,1.88-4.91,4.189-5.254l46.044-6.976
		c0.156-0.023,0.309-0.035,0.457-0.035c1.766,0,3.096,1.582,3.096,3.683v9.509c0,2.396-1.632,4.882-3.64,5.545l-46.232,15.199
		C79.681,130.09,79.31,130.15,78.951,130.15"/>
	<path fill="#0B314C" d="M7.051,69.578c-1.829,0-3.156-1.553-3.156-3.69v-1.549c0-2.551,1.777-5.559,3.883-6.563l58.086-27.771
		c0.466-0.223,0.917-0.336,1.338-0.336c1.346,0,2.217,1.17,2.217,2.979v18.534c0,2.56-1.829,5.049-4.077,5.547L7.812,69.49
		C7.557,69.549,7.301,69.578,7.051,69.578"/>
	<path fill="#0B314C" d="M65.872,93.038c-0.149,0-0.301-0.011-0.453-0.029l-57.421-7.36c-2.263-0.283-4.102-2.587-4.102-5.133
		v-1.557c0-2.543,1.839-4.846,4.102-5.134l57.421-7.353c0.155-0.021,0.307-0.03,0.459-0.03c2.02,0,3.543,1.732,3.543,4.03v18.536
		c0,1.122-0.372,2.154-1.041,2.898C67.723,92.636,66.833,93.038,65.872,93.038"/>
	<path fill="#0B314C" d="M67.201,129.806c-0.421,0-0.871-0.114-1.336-0.336L7.781,101.699c-2.106-1.005-3.885-4.008-3.885-6.559
		v-1.558c0-2.134,1.327-3.684,3.152-3.684c0.25,0,0.507,0.029,0.764,0.086l57.531,12.758c2.247,0.503,4.079,2.992,4.079,5.552
		v18.538c0,0.92-0.224,1.685-0.647,2.217C68.381,129.544,67.837,129.806,67.201,129.806"/>
	<rect x="167.985" y="48.229" fill="#0B314C" width="12.366" height="62.226"/>
	<path fill="#0B314C" d="M200.166,93.412c0.872,6.262,4.043,9.353,10.304,9.353c4.995,0,8.799-1.109,11.099-2.299l2.775,7.689
		c-3.33,1.665-8.086,3.091-15.299,3.091c-13.08,0-20.611-8.64-20.611-22.274c0-13.396,6.977-22.038,19.264-22.038
		c12.365,0,18.629,8.403,18.073,22.83L200.166,93.412z M207.222,74.229c-5.073,0-8.243,4.36-7.847,13.159l14.903-2.22
		C214.278,77.558,211.74,74.229,207.222,74.229"/>
	<path fill="#0B314C" d="M249.161,111.246c-12.366,0-18.708-4.595-18.708-13.475c0-11.017,11.018-14.268,23.859-15.455v-1.983
		c0-4.439-3.011-5.708-7.528-5.708c-4.123,0-8.323,1.348-11.098,2.616l-2.696-7.056c3.013-1.268,8.562-3.25,16.092-3.25
		c9.671,0,16.803,4.043,16.803,15.617v25.524C262.319,109.979,256.53,111.246,249.161,111.246 M254.311,88.021
		c-7.451,0.713-12.285,2.457-12.285,9.274c0,4.994,2.853,7.135,7.768,7.135c1.824,0,3.41-0.318,4.517-0.872L254.311,88.021
		L254.311,88.021z"/>
	<path fill="#0B314C" d="M285.225,111.168c-5.234,0-9.911-1.348-12.523-3.091l3.169-7.849c1.585,1.27,4.517,2.457,7.609,2.457
		c3.172,0,5.312-1.981,5.312-4.676c0-2.854-1.508-4.439-5.474-6.025c-7.841-3.091-9.587-7.451-9.587-11.891
		c0-7.292,5.707-13.158,14.27-13.158c5.311,0,8.955,1.031,12.284,3.091l-3.012,7.056c-1.271-1.032-3.727-2.219-6.499-2.219
		c-3.251,0-4.915,1.981-4.915,4.438c0,2.852,2.142,4.44,5.468,5.865c8.243,3.489,10.147,7.531,10.147,12.525
		C301.474,105.144,295.369,111.168,285.225,111.168"/>
	<path fill="#0B314C" d="M319.307,93.412c0.872,6.262,4.041,9.353,10.303,9.353c4.995,0,8.8-1.109,11.1-2.299l2.772,7.689
		c-3.328,1.665-8.083,3.091-15.3,3.091c-13.076,0-20.606-8.64-20.606-22.274c0-13.396,6.973-22.038,19.258-22.038
		c12.367,0,18.631,8.403,18.075,22.83L319.307,93.412z M326.36,74.229c-5.074,0-8.243,4.36-7.847,13.159l14.903-2.22
		C333.416,77.558,330.879,74.229,326.36,74.229"/>
	<path fill="#0B314C" d="M397.464,110.454h-11.415l-6.103-23.146c-0.716-2.854-0.873-5.865-0.873-5.865h-0.078
		c0,0-0.159,3.011-0.948,5.865l-6.264,23.146h-11.338l-11.731-42.725h12.287l5.154,24.651c0.709,3.489,0.79,6.184,0.79,6.184h0.16
		c0,0,0.079-2.615,1.033-6.184l6.496-24.651h10.145l6.105,24.651c0.714,3.013,1.031,6.184,1.031,6.184h0.16
		c0,0,0.076-3.171,0.793-6.261l5.466-24.574h10.859L397.464,110.454z"/>
	<path fill="#0B314C" d="M424.653,93.412c0.87,6.262,4.046,9.353,10.305,9.353c4.993,0,8.802-1.109,11.098-2.299l2.775,7.689
		c-3.328,1.665-8.085,3.091-15.299,3.091c-13.08,0-20.61-8.64-20.61-22.274c0-13.396,6.974-22.038,19.261-22.038
		c12.367,0,18.628,8.403,18.073,22.83L424.653,93.412z M431.707,74.229c-5.074,0-8.24,4.36-7.847,13.159l14.902-2.22
		C438.763,77.558,436.224,74.229,431.707,74.229"/>
	<path fill="#0B314C" d="M473.558,111.246c-7.372,0-12.604-1.345-15.458-3.169V48.229h12.365V68.76
		c1.982-0.951,4.201-1.586,7.927-1.586c10.068,0,17.041,8.085,17.041,20.689C495.434,102.845,487.589,111.246,473.558,111.246
		 M474.906,74.229c-1.982,0-3.252,0.318-4.44,0.951v27.982c0.952,0.396,2.3,0.635,3.807,0.635c6.261,0,8.958-5.549,8.958-15.141
		C483.229,80.333,481.484,74.229,474.906,74.229"/>
	<path fill="#0B314C" d="M452.822,164.082c-18.098-0.441-34.513-0.663-50.542-0.663c-84.614,0-109.854,4.323-110.11,4.385
		c-0.402,0.099-0.745,0.347-0.962,0.701c-0.217,0.356-0.28-0.115-0.185,0.287c0.17,0.704-0.098,1.19,0.624,1.19
		c0.125,0,0.25-0.014,0.364-0.042c0.253-0.062,26.274-4.302,110.15-4.302c16.035,0,33.354,0.224,51.495,0.667
		c0.847,0,0.663,0.208,0.686-0.63C454.361,164.818,453.681,164.102,452.822,164.082"/>
	<path fill="#0B314C" d="M291.647,170.026c-0.553,0-0.571-0.284-0.597-0.677c-0.012-0.164-0.023-0.346-0.071-0.549
		c-0.018-0.067-0.029-0.111-0.037-0.135c-0.011-0.041-0.015-0.059,0-0.076l0.015-0.019h0.036l0.023,0.017
		c0.007,0.008,0.019,0.015,0.028,0.015c0.013,0,0.059-0.009,0.122-0.12c0.225-0.364,0.574-0.619,0.991-0.722
		c0.181-0.043,24.908-4.385,110.118-4.385c15.66,0,32.194,0.217,50.546,0.661c0.882,0.024,1.583,0.757,1.562,1.639
		c-0.004,0.149-0.001,0.267,0.001,0.357c0.005,0.165,0.007,0.249-0.042,0.297c-0.035,0.037-0.089,0.042-0.14,0.042
		c-0.039,0-0.085-0.002-0.146-0.007c-0.098-0.007-0.229-0.017-0.403-0.017c-18.113-0.441-35.438-0.667-51.492-0.667
		c-83.934,0-109.963,4.258-110.141,4.301C291.903,170.013,291.778,170.026,291.647,170.026 M291.044,168.691
		c0.007,0.024,0.016,0.053,0.025,0.091c0.048,0.208,0.062,0.396,0.071,0.561c0.026,0.396,0.039,0.595,0.51,0.595
		c0.12,0,0.241-0.014,0.352-0.042c0.18-0.04,26.22-4.302,110.162-4.302c16.054,0,33.38,0.226,51.494,0.667
		c0.176,0,0.31,0.009,0.408,0.014c0.122,0.011,0.199,0.013,0.22-0.007c0.021-0.022,0.02-0.105,0.015-0.232
		c-0.002-0.092-0.005-0.21-0.002-0.359c0.022-0.836-0.641-1.529-1.475-1.551c-18.352-0.446-34.884-0.663-50.543-0.663
		c-85.202,0-109.917,4.341-110.097,4.386c-0.394,0.095-0.726,0.338-0.936,0.682c-0.068,0.109-0.132,0.162-0.2,0.162H291.044
		L291.044,168.691z"/>
	<path fill="#0B314C" d="M262.333,143.691c0-0.12,0.175-0.472,0.531-1.125c0.416-0.649,0.593-1.062,0.593-1.241
		c-0.829,0-3.019,2.247-6.628,6.744c-3.607,4.437-5.618,6.685-6.152,6.685c-0.709,0-1.716-0.651-1.716-1.361
		c0,0.062,0.533-0.826,1.54-2.542c2.067-3.611,3.134-7.162,3.134-10.651c0-0.648-0.178-2.249-0.178-2.897
		c0-0.415,0.354-0.769,1.006-1.007c1.005,0.474,1.536,1.717,1.536,3.729c0,2.306-0.827,5.205-2.425,8.814l1.48-1.894
		c1.065-1.362,1.597-1.952,1.597-1.895c1.422-1.715,2.841-3.371,4.319-5.026c2.366-2.604,4.021-3.905,4.909-3.905
		c0.534,0,1.421,1.184,1.421,1.832c0,0.535-0.887,2.604-2.662,6.215c-0.236,0.532-0.59,0.767-1.124,0.767
		C262.747,144.935,262.333,144.52,262.333,143.691"/>
	<path fill="#0B314C" d="M250.679,154.844c-0.756,0-1.722-0.646-1.8-1.358h-0.004l-0.001-0.062v-0.028h0.087l-0.055-0.064
		c0.102-0.108,1.168-1.927,1.518-2.524c2.073-3.614,3.122-7.182,3.122-10.604c0-0.32-0.044-0.89-0.087-1.442
		c-0.045-0.554-0.09-1.127-0.09-1.456c0-0.452,0.379-0.84,1.063-1.089l0.036-0.015l0.033,0.017c1.053,0.497,1.589,1.777,1.589,3.809
		c0,2.125-0.704,4.816-2.155,8.208l1.049-1.338c0.874-1.118,1.412-1.756,1.603-1.902c1.462-1.768,2.876-3.412,4.316-5.026
		c2.374-2.61,4.05-3.936,4.976-3.936c0.607,0,1.51,1.261,1.51,1.922c0,0.553-0.873,2.598-2.67,6.253
		c-0.248,0.558-0.632,0.817-1.205,0.817c-0.833,0-1.272-0.46-1.272-1.331c0-0.13,0.134-0.414,0.543-1.168
		c0.405-0.629,0.527-0.947,0.567-1.098c-0.86,0.18-3.028,2.434-6.453,6.699C252.967,152.96,251.223,154.844,250.679,154.844
		 M249.052,153.425c0.027,0.631,0.942,1.24,1.626,1.24c0.596,0,3.562-3.554,6.081-6.651c3.714-4.623,5.84-6.776,6.696-6.776h0.09
		v0.088c0,0.22-0.216,0.677-0.607,1.289c-0.167,0.305-0.517,0.951-0.517,1.077c0,0.765,0.366,1.154,1.093,1.154
		c0.503,0,0.824-0.222,1.045-0.718c1.761-3.581,2.653-5.659,2.653-6.176c0-0.621-0.858-1.743-1.334-1.743
		c-0.601,0-1.93,0.672-4.844,3.874c-1.438,1.614-2.85,3.26-4.313,5.026l-0.159,0.188v-0.048c-0.204,0.221-0.661,0.758-1.438,1.75
		l-1.92,2.459l0.291-0.655c1.626-3.675,2.417-6.547,2.417-8.779c0-1.934-0.489-3.154-1.453-3.629
		c-0.589,0.22-0.914,0.544-0.914,0.907c0,0.319,0.047,0.891,0.09,1.442c0.044,0.554,0.09,1.128,0.09,1.456
		c0,3.455-1.06,7.052-3.146,10.694C249.496,152.741,249.173,153.273,249.052,153.425"/>
	<path fill="#0B314C" d="M281.38,151.087c-2.781,1.598-5.796,2.427-8.992,2.427c-0.474,0-1.123-0.296-2.01-0.829
		c-1.244-0.888-1.894-2.13-1.894-3.728c0-1.952,1.124-4.496,3.429-7.632c2.309-3.134,4.261-4.731,5.799-4.731
		c2.364,0,4.32,1.298,4.32,3.607c0,1.537-1.186,3.076-3.551,4.674c-2.19,1.479-4.142,2.189-5.74,2.189h-0.532
		c-0.177-0.06-0.355-0.06-0.471-0.06c-0.179,0-0.356,0.354-0.594,1.004c-0.234,0.653-0.355,1.125-0.355,1.422
		c0,0.827,0.415,1.361,1.243,1.597c0.296,0.06,1.065,0.117,2.189,0.117c0.413,0,1.183-0.177,2.307-0.529
		c1.124-0.417,1.833-0.71,2.249-0.949c1.537-0.885,2.427-1.358,2.602-1.358c0.653,0,1.36,0.887,1.36,1.598
		C282.74,150.14,282.267,150.555,281.38,151.087 M278.481,139.077c-0.651,0-1.657,0.709-3.017,2.189
		c-1.36,1.479-2.128,2.542-2.307,3.194h1.063c0.65,0,1.716-0.593,3.313-1.774c1.598-1.183,2.366-2.071,2.366-2.604
		C279.901,139.609,279.014,139.077,278.481,139.077"/>
	<path fill="#0B314C" d="M272.388,153.603c-0.458,0-1.074-0.253-2.058-0.842c-1.286-0.918-1.936-2.197-1.936-3.805
		c0-1.99,1.161-4.575,3.448-7.685c2.329-3.164,4.303-4.769,5.869-4.769c2.636,0,4.409,1.484,4.409,3.697
		c0,1.564-1.177,3.118-3.59,4.747c-2.135,1.441-4.136,2.205-5.789,2.205l-0.56-0.005c-0.164-0.056-0.334-0.056-0.444-0.056
		c-0.167,0-0.425,0.712-0.511,0.947c-0.229,0.637-0.35,1.104-0.35,1.389c0,0.792,0.386,1.285,1.179,1.514
		c0.263,0.05,0.993,0.113,2.165,0.113c0.403,0,1.171-0.178,2.281-0.528c1.144-0.421,1.835-0.711,2.231-0.939
		c2.092-1.206,2.508-1.372,2.645-1.372c0.733,0,1.449,0.965,1.449,1.687c0,0.276-0.471,0.701-1.404,1.258
		C278.608,152.781,275.569,153.603,272.388,153.603 M277.712,136.682c-1.507,0-3.433,1.581-5.726,4.697
		c-2.266,3.077-3.414,5.627-3.414,7.578c0,1.546,0.623,2.776,1.857,3.657c0.934,0.559,1.538,0.811,1.958,0.811
		c3.149,0,6.159-0.812,8.948-2.416c1.222-0.73,1.317-1.03,1.317-1.104c0-0.691-0.69-1.509-1.273-1.509
		c-0.146,0-1.005,0.454-2.557,1.349c-0.406,0.23-1.102,0.524-2.263,0.951c-1.13,0.358-1.915,0.539-2.336,0.539
		c-1.187,0-1.932-0.066-2.209-0.121c-0.871-0.249-1.312-0.815-1.312-1.684c0-0.309,0.118-0.784,0.359-1.45
		c0.291-0.796,0.461-1.064,0.676-1.064c0.12,0,0.301,0,0.487,0.06h0.518c1.617,0,3.583-0.752,5.69-2.174
		c2.36-1.594,3.51-3.101,3.51-4.6C281.943,137.771,279.817,136.682,277.712,136.682 M274.222,144.55h-1.181l0.029-0.112
		c0.184-0.672,0.946-1.728,2.328-3.229c1.352-1.473,2.388-2.218,3.083-2.218c0.554,0,1.509,0.54,1.509,1.093
		c0,0.74-1.307,1.861-2.403,2.675C275.916,143.997,274.877,144.55,274.222,144.55 M273.278,144.371h0.946
		c0.604,0,1.642-0.559,3.259-1.757c2.026-1.502,2.33-2.23,2.33-2.531c0-0.406-0.826-0.917-1.33-0.917
		c-0.441,0-1.312,0.374-2.952,2.159C274.263,142.705,273.505,143.728,273.278,144.371"/>
	<path fill="#0B314C" d="M297.471,124.583L287,150.852c0.235,0,0.829-0.297,1.064-0.297c0.474,0,0.71,0.177,0.71,0.532
		c0,0.118,0,0.237-0.061,0.354c0,1.184-1.479,2.486-2.662,2.486c-1.004,0-1.536-0.709-1.536-2.131c0-1.599,0.829-4.318,2.424-8.165
		c1.361-3.312,3.193-7.63,5.505-12.896l1.773-4.144c0.945-2.188,1.538-3.312,1.833-3.369c0.297-0.061,0.531-0.119,0.711-0.119
		c0.413,0,0.649,0.177,0.709,0.531V124.583z"/>
	<path fill="#0B314C" d="M286.052,154.015c-0.741,0-1.626-0.383-1.626-2.218c0-1.575,0.796-4.257,2.432-8.196
		c1.469-3.574,3.371-8.036,5.504-12.899l1.774-4.141c1.267-2.929,1.66-3.377,1.899-3.425l0.169-0.034
		c0.227-0.048,0.406-0.085,0.558-0.085c0.574,0,0.752,0.329,0.798,0.606v0.979l-0.005,0.018l-10.417,26.12
		c0.109-0.027,0.241-0.075,0.366-0.119c0.217-0.08,0.426-0.153,0.559-0.153c0.66,0,0.8,0.339,0.8,0.621c0,0.117,0,0.245-0.06,0.375
		C288.786,152.66,287.329,154.015,286.052,154.015 M296.761,123.193c-0.134,0-0.315,0.037-0.521,0.081l-0.171,0.035
		c-0.244,0.049-0.838,1.166-1.771,3.32l-1.774,4.141c-2.13,4.865-4.033,9.323-5.501,12.896c-1.628,3.919-2.421,6.577-2.421,8.13
		c0,1.354,0.487,2.042,1.45,2.042c1.179,0,2.575-1.3,2.575-2.397l0.007-0.038c0.05-0.101,0.05-0.205,0.05-0.316
		c0-0.189-0.064-0.444-0.621-0.444c-0.103,0-0.313,0.075-0.502,0.144c-0.219,0.077-0.428,0.154-0.562,0.154h-0.131l0.049-0.123
		l10.464-26.25v-0.932C297.329,123.339,297.134,123.193,296.761,123.193"/>
	<path fill="#0B314C" d="M299.601,141.325c0.06,0.948-0.298,2.307-1.065,4.142c-0.414,0.888-1.006,2.248-1.657,4.082
		c-0.177,1.066-0.591,2.485-1.122,4.26c-0.18,0.355-0.476,0.532-0.949,0.532c-0.767,0.059-1.184-0.413-1.239-1.422
		c-0.059-0.945,1.183-4.733,3.727-11.299c0.177-0.412,0.472-0.77,0.888-1.182c0.413,0,0.828,0.236,1.359,0.709
		C299.601,141.208,299.601,141.267,299.601,141.325 M301.315,136.118c-0.356,0.889-0.709,1.36-1.125,1.421
		c-0.532,0-1.479-1.005-1.536-1.655c-0.062-1.007,0.708-3.019,1.595-3.019c0.947-0.06,1.479,0.412,1.537,1.358
		C301.788,134.699,301.611,135.351,301.315,136.118"/>
	<path fill="#0B314C" d="M294.684,154.435c-0.742,0-1.149-0.507-1.206-1.509c-0.062-0.973,1.192-4.788,3.733-11.338
		c0.162-0.383,0.424-0.734,0.905-1.214l0.027-0.024h0.036c0.415,0,0.843,0.218,1.421,0.731c0.088,0.091,0.088,0.179,0.088,0.246
		c0.061,0.946-0.292,2.312-1.073,4.174c-0.574,1.233-1.134,2.604-1.654,4.077c-0.174,1.056-0.595,2.492-1.123,4.256
		c-0.202,0.406-0.537,0.595-1.034,0.595C294.768,154.433,294.725,154.435,294.684,154.435 M298.216,140.529
		c-0.448,0.448-0.693,0.776-0.843,1.126c-3.148,8.128-3.761,10.61-3.719,11.262c0.056,0.955,0.438,1.384,1.146,1.335
		c0.438,0,0.707-0.149,0.873-0.484c0.521-1.742,0.939-3.171,1.116-4.233c0.528-1.494,1.086-2.869,1.663-4.104
		c0.768-1.832,1.114-3.174,1.057-4.1c0-0.061,0-0.088-0.033-0.12C298.956,140.748,298.575,140.541,298.216,140.529 M300.197,137.628
		h-0.007c-0.59,0-1.563-1.039-1.626-1.738c-0.045-0.761,0.362-2.094,0.979-2.742c0.229-0.246,0.465-0.369,0.704-0.369
		c0.05-0.003,0.104-0.004,0.157-0.004c0.891,0,1.413,0.512,1.473,1.446c0,0.464-0.158,1.093-0.48,1.932
		c-0.382,0.957-0.752,1.413-1.195,1.476H300.197z M300.405,132.951c-0.05,0-0.099,0.002-0.151,0.002
		c-0.191,0-0.387,0.107-0.583,0.315c-0.573,0.609-0.972,1.902-0.931,2.61c0.055,0.583,0.955,1.564,1.446,1.573
		c0.362-0.057,0.693-0.491,1.046-1.365c0.314-0.816,0.465-1.424,0.465-1.861C301.647,133.382,301.21,132.951,300.405,132.951"/>
	<path fill="#0B314C" d="M320.541,151.856c0,0.769-1.065,1.536-1.951,1.536c-1.777,0-3.376-1.655-4.734-5.027l-2.839,2.486
		c-0.532,0.294-1.361,0.709-2.546,1.183c-1.183,0.472-2.012,0.71-2.426,0.71c-2.425,0-3.61-1.42-3.61-4.26
		c0-2.189,1.125-4.793,3.433-7.869c2.428-3.312,4.732-4.969,6.863-4.969c1.773,0,2.603,1.24,2.544,3.786v0.709
		c0.829-1.124,1.419-1.656,1.834-1.656c0.295,0,0.768,0.238,1.481,0.769c-0.062,0.355-0.476,1.596-1.187,3.785
		c-0.531,1.48-0.828,2.782-0.828,3.848c0,0.769,0.118,1.598,0.354,2.544c0.355,1.241,0.77,1.834,1.302,1.834
		c0.06,0,0.651-0.12,1.776-0.297C320.362,151.324,320.541,151.619,320.541,151.856 M310.958,147.538
		c2.068-2.013,3.193-3.667,3.313-5.029c-0.474,0.06-0.711,0.119-0.653,0.119c-0.77,0-1.124-0.533-1.124-1.657
		c0-0.651,0.297-2.07,0.354-2.603c-1.596,0.413-3.37,1.952-5.266,4.496c-1.894,2.545-2.839,4.614-2.839,6.33
		c0,0.472,0.652,1.361,1.064,1.361C307.17,150.555,308.886,149.549,310.958,147.538"/>
	<path fill="#0B314C" d="M318.59,153.482c-1.815,0-3.419-1.672-4.769-4.968l-2.748,2.403c-0.503,0.281-1.343,0.707-2.567,1.197
		c-1.172,0.471-2.022,0.716-2.457,0.716c-2.455,0-3.699-1.462-3.699-4.347c0-2.237,1.129-4.828,3.448-7.923
		c2.431-3.32,4.765-5.004,6.935-5.004c0.752,0,1.348,0.221,1.775,0.661c0.611,0.625,0.892,1.677,0.855,3.216v0.441
		c0.768-1.006,1.325-1.479,1.746-1.479c0.329,0,0.816,0.251,1.532,0.787l0.043,0.032l-0.009,0.054
		c-0.051,0.305-0.342,1.199-0.87,2.828l-0.317,0.971c-0.547,1.518-0.824,2.801-0.824,3.818c0,0.749,0.118,1.574,0.354,2.522
		c0.338,1.188,0.737,1.767,1.214,1.767c0.025-0.002,0.167-0.026,0.341-0.058c0.296-0.052,0.768-0.134,1.422-0.236l0.045-0.009
		l0.031,0.031c0.374,0.376,0.559,0.687,0.559,0.95C320.631,152.716,319.488,153.482,318.59,153.482 M313.889,148.217l0.048,0.114
		c1.332,3.301,2.896,4.975,4.653,4.975c0.886,0,1.861-0.758,1.861-1.449c0-0.205-0.159-0.471-0.475-0.793
		c-0.627,0.101-1.087,0.18-1.373,0.229c-0.263,0.047-0.34,0.061-0.371,0.061c-0.575,0-1.017-0.603-1.384-1.897
		c-0.241-0.966-0.359-1.804-0.359-2.568c0-1.038,0.28-2.342,0.834-3.876l0.313-0.968c0.481-1.482,0.781-2.406,0.854-2.749
		c-0.643-0.477-1.105-0.718-1.382-0.718c-0.381,0-0.958,0.53-1.763,1.62l-0.16,0.218v-0.979c0.032-1.491-0.229-2.501-0.808-3.093
		c-0.398-0.406-0.936-0.604-1.648-0.604c-2.109,0-4.394,1.659-6.79,4.932c-2.299,3.062-3.414,5.618-3.414,7.814
		c0,2.808,1.151,4.172,3.521,4.172c0.408,0,1.256-0.25,2.393-0.705c1.216-0.484,2.047-0.907,2.531-1.177L313.889,148.217z
		 M305.811,150.643c-0.476,0-1.151-0.938-1.151-1.449c0-1.713,0.931-3.8,2.854-6.384c1.929-2.592,3.716-4.114,5.312-4.528
		l0.127-0.033l-0.016,0.128c-0.02,0.185-0.067,0.473-0.122,0.803c-0.103,0.611-0.232,1.372-0.232,1.79
		c0,1.066,0.312,1.552,1.008,1.567c0.082-0.033,0.267-0.068,0.668-0.118l0.11-0.013l-0.01,0.108
		c-0.118,1.352-1.21,3.017-3.341,5.085C308.94,149.618,307.188,150.643,305.811,150.643 M312.744,138.489
		c-1.525,0.45-3.234,1.939-5.087,4.428c-1.899,2.551-2.823,4.604-2.823,6.277c0,0.451,0.628,1.272,0.977,1.272
		c1.33,0,3.041-1.005,5.084-2.99c2.04-1.982,3.112-3.575,3.276-4.865c-0.322,0.046-0.494,0.084-0.521,0.094l-0.03-0.079v0.091
		l-0.083-0.003c-0.761-0.036-1.129-0.608-1.129-1.74c0-0.436,0.127-1.202,0.231-1.819
		C312.681,138.895,312.722,138.665,312.744,138.489"/>
	<path fill="#0B314C" d="M334.856,151.265c-2.781,2.483-5.028,3.727-6.743,3.727c-1.481,0-2.251-0.77-2.251-2.307
		c0-0.474,0.179-1.065,0.592-1.832c0.414-0.771,0.77-1.187,1.187-1.187c0.412,0,0.59,0.297,0.59,0.947
		c0,0.473-0.295,1.717-0.295,2.189c0,0.06,0,0.116,0.058,0.177c1.42-0.296,3.254-1.48,5.562-3.668
		c2.13-2.013,3.193-3.667,3.193-4.969c0-1.835-1.361-3.787-3.076-3.787c-1.42,0-2.959,0.709-4.673,2.07
		c-1.48,1.241-2.426,2.306-2.781,3.193c-0.532,1.243-1.537,4.083-3.136,8.52c-0.058,0.298-1.064,0.652-1.479,0.652
		c-0.473,0-0.709-0.354-0.709-1.066c0-0.059,0.236-0.65,0.649-1.831c0.474-1.241,0.71-1.896,0.769-1.954
		c1.007-3.017,2.071-6.271,3.254-9.701c2.781-8.046,4.498-13.962,5.146-17.808c0.18-0.295,0.358-0.415,0.653-0.415
		c1.005,0,1.479,0.593,1.479,1.717c0,0.651-0.711,3.43-2.189,8.225c-1.124,3.728-2.012,6.506-2.663,8.342
		c1.953-1.479,3.786-2.248,5.502-2.248c1.597,0,2.958,0.707,3.965,2.128c1.007,1.361,1.539,2.898,1.539,4.616
		C338.998,146.709,337.637,148.781,334.856,151.265"/>
	<path fill="#0B314C" d="M328.112,155.079c-1.529,0-2.338-0.827-2.338-2.395c0-0.51,0.196-1.124,0.603-1.877
		c0.469-0.872,0.838-1.229,1.263-1.229c0.607,0,0.68,0.589,0.68,1.037c0,0.242-0.073,0.663-0.149,1.106
		c-0.073,0.42-0.146,0.851-0.146,1.082c0,0.033,0.001,0.059,0.01,0.078c1.416-0.317,3.253-1.539,5.461-3.635
		c2.103-1.983,3.168-3.634,3.168-4.904c0-1.745-1.279-3.697-2.987-3.697c-1.366,0-2.878,0.669-4.617,2.051
		c-1.51,1.269-2.411,2.301-2.753,3.157c-0.456,1.06-1.257,3.29-2.471,6.668l-0.665,1.851c-0.072,0.364-1.164,0.707-1.563,0.707
		c-0.53,0-0.797-0.388-0.797-1.151c0-0.043,0.023-0.118,0.184-0.552c0.111-0.303,0.269-0.738,0.468-1.314l0.281-0.739
		c0.326-0.854,0.434-1.137,0.493-1.224c0.259-0.771,0.519-1.557,0.783-2.358c0.781-2.352,1.587-4.782,2.466-7.33
		c2.812-8.138,4.496-13.958,5.144-17.796l0.012-0.031c0.195-0.324,0.408-0.456,0.728-0.456c1.044,0,1.568,0.606,1.568,1.806
		c0,0.715-0.818,3.8-2.192,8.247c-1.063,3.53-1.926,6.243-2.566,8.073c1.899-1.389,3.688-2.093,5.319-2.093
		c1.64,0,3.033,0.749,4.036,2.166c1.032,1.395,1.555,2.964,1.555,4.666c0,1.759-1.365,3.832-4.169,6.338
		C332.131,153.818,329.844,155.079,328.112,155.079 M327.639,149.756c-0.347,0-0.677,0.34-1.105,1.138
		c-0.391,0.726-0.581,1.312-0.581,1.792c0,1.471,0.727,2.219,2.16,2.219c1.686,0,3.933-1.247,6.686-3.706
		c2.767-2.473,4.111-4.5,4.111-6.203c0-1.664-0.513-3.198-1.524-4.562c-0.981-1.392-2.293-2.097-3.892-2.097
		c-1.66,0-3.494,0.751-5.447,2.233l-0.238,0.177l0.101-0.278c0.647-1.824,1.543-4.631,2.66-8.34
		c1.369-4.436,2.187-7.497,2.187-8.196c0-1.094-0.456-1.627-1.391-1.627c-0.255,0-0.403,0.094-0.564,0.359
		c-0.655,3.847-2.338,9.669-5.148,17.803c-0.88,2.55-1.685,4.98-2.465,7.331c-0.27,0.805-0.53,1.596-0.788,2.369l-0.024,0.035
		c-0.04,0.055-0.218,0.528-0.467,1.181l-0.278,0.741c-0.2,0.573-0.363,1.01-0.473,1.312c-0.094,0.259-0.17,0.463-0.175,0.5
		c0,0.968,0.468,0.968,0.622,0.968c0.418,0,1.349-0.358,1.392-0.578l0.67-1.865c1.215-3.377,2.015-5.611,2.472-6.673
		c0.353-0.882,1.27-1.939,2.803-3.229c1.776-1.406,3.324-2.091,4.733-2.091c1.81,0,3.165,2.045,3.165,3.874
		c0,1.32-1.083,3.015-3.223,5.032c-2.261,2.147-4.149,3.387-5.605,3.689l-0.047,0.013l-0.033-0.035
		c-0.084-0.085-0.084-0.173-0.084-0.238c0-0.245,0.07-0.665,0.149-1.111c0.07-0.415,0.146-0.849,0.146-1.077
		C328.141,149.857,327.888,149.756,327.639,149.756"/>
	<path fill="#0B314C" d="M353.726,124.583l-10.472,26.269c0.236,0,0.829-0.297,1.064-0.297c0.473,0,0.71,0.177,0.71,0.532
		c0,0.118,0,0.237-0.06,0.354c0,1.184-1.479,2.486-2.663,2.486c-1.004,0-1.537-0.709-1.537-2.131c0-1.599,0.829-4.318,2.427-8.165
		c1.359-3.312,3.193-7.63,5.501-12.896l1.773-4.144c0.947-2.188,1.539-3.312,1.834-3.369c0.297-0.061,0.532-0.119,0.712-0.119
		c0.412,0,0.65,0.177,0.709,0.531L353.726,124.583L353.726,124.583z"/>
	<path fill="#0B314C" d="M342.307,154.015c-0.743,0-1.626-0.383-1.626-2.218c0-1.575,0.796-4.257,2.431-8.196
		c1.469-3.574,3.372-8.036,5.505-12.899l1.772-4.141c1.267-2.929,1.661-3.377,1.899-3.425l0.17-0.034
		c0.228-0.048,0.405-0.085,0.558-0.085c0.574,0,0.753,0.329,0.798,0.606l0.002,0.979l-0.006,0.018l-10.417,26.12
		c0.109-0.027,0.24-0.075,0.366-0.119c0.218-0.08,0.425-0.153,0.557-0.153c0.661,0,0.803,0.339,0.803,0.621
		c0,0.117,0,0.245-0.062,0.375C345.041,152.66,343.585,154.015,342.307,154.015 M353.016,123.193c-0.133,0-0.312,0.037-0.521,0.081
		l-0.171,0.035c-0.244,0.049-0.838,1.166-1.771,3.32l-1.775,4.141c-2.133,4.865-4.033,9.323-5.499,12.896
		c-1.63,3.919-2.421,6.577-2.421,8.13c0,1.354,0.486,2.042,1.449,2.042c1.178,0,2.575-1.3,2.575-2.397l0.007-0.038
		c0.051-0.101,0.051-0.205,0.051-0.316c0-0.189-0.063-0.444-0.622-0.444c-0.103,0-0.312,0.075-0.502,0.144
		c-0.219,0.077-0.43,0.154-0.562,0.154h-0.131l0.049-0.123l10.464-26.25v-0.932C353.585,123.339,353.387,123.193,353.016,123.193"/>
	<path fill="#0B314C" d="M362.715,151.087c-2.779,1.598-5.795,2.427-8.992,2.427c-0.472,0-1.122-0.296-2.011-0.829
		c-1.242-0.888-1.893-2.13-1.893-3.728c0-1.952,1.124-4.496,3.431-7.632c2.308-3.134,4.259-4.731,5.797-4.731
		c2.365,0,4.32,1.298,4.32,3.607c0,1.537-1.185,3.076-3.552,4.674c-2.188,1.479-4.141,2.189-5.738,2.189h-0.533
		c-0.174-0.06-0.354-0.06-0.472-0.06c-0.177,0-0.355,0.354-0.592,1.004c-0.236,0.653-0.356,1.125-0.356,1.422
		c0,0.827,0.415,1.361,1.243,1.597c0.296,0.06,1.064,0.117,2.19,0.117c0.412,0,1.181-0.177,2.306-0.529
		c1.124-0.417,1.833-0.71,2.251-0.949c1.534-0.885,2.425-1.358,2.6-1.358c0.653,0,1.362,0.887,1.362,1.598
		C364.076,150.14,363.603,150.555,362.715,151.087 M359.816,139.077c-0.65,0-1.655,0.709-3.017,2.189
		c-1.36,1.479-2.13,2.542-2.306,3.194h1.065c0.65,0,1.715-0.593,3.312-1.774c1.598-1.183,2.367-2.071,2.367-2.604
		C361.238,139.609,360.35,139.077,359.816,139.077"/>
	<path fill="#0B314C" d="M353.723,153.603c-0.459,0-1.073-0.253-2.057-0.842c-1.287-0.918-1.936-2.197-1.936-3.805
		c0-1.99,1.16-4.575,3.449-7.685c2.328-3.164,4.3-4.769,5.867-4.769c2.638,0,4.41,1.484,4.41,3.697c0,1.564-1.177,3.118-3.591,4.747
		c-2.135,1.441-4.137,2.205-5.789,2.205l-0.559-0.005c-0.166-0.056-0.334-0.056-0.446-0.056c-0.164,0-0.423,0.712-0.51,0.947
		c-0.229,0.637-0.35,1.104-0.35,1.389c0,0.792,0.386,1.285,1.179,1.514c0.263,0.05,0.994,0.113,2.166,0.113
		c0.403,0,1.17-0.178,2.28-0.528c1.143-0.421,1.835-0.711,2.229-0.939c2.094-1.206,2.508-1.372,2.646-1.372
		c0.733,0,1.449,0.965,1.449,1.687c0,0.276-0.471,0.701-1.402,1.258C359.943,152.781,356.906,153.603,353.723,153.603
		 M359.048,136.682c-1.506,0-3.432,1.581-5.725,4.697c-2.265,3.077-3.414,5.627-3.414,7.578c0,1.546,0.624,2.776,1.856,3.657
		c0.934,0.559,1.54,0.811,1.959,0.811c3.15,0,6.159-0.812,8.948-2.416c1.222-0.73,1.316-1.03,1.316-1.104
		c0-0.691-0.689-1.509-1.272-1.509c-0.145,0-1.004,0.454-2.557,1.349c-0.408,0.23-1.102,0.524-2.263,0.951
		c-1.129,0.358-1.915,0.539-2.337,0.539c-1.188,0-1.93-0.066-2.209-0.121c-0.874-0.249-1.312-0.815-1.312-1.684
		c0-0.309,0.119-0.784,0.36-1.45c0.289-0.796,0.461-1.064,0.676-1.064c0.121,0,0.302,0,0.488,0.06h0.517
		c1.616,0,3.582-0.752,5.689-2.174c2.36-1.594,3.513-3.101,3.513-4.6C363.279,137.771,361.152,136.682,359.048,136.682
		 M355.559,144.55h-1.183l0.029-0.112c0.184-0.672,0.946-1.728,2.329-3.229c1.351-1.473,2.389-2.218,3.082-2.218
		c0.554,0,1.509,0.54,1.509,1.093c0,0.74-1.306,1.861-2.402,2.675C357.254,143.997,356.213,144.55,355.559,144.55 M354.614,144.371
		h0.945c0.604,0,1.642-0.559,3.259-1.757c2.029-1.502,2.331-2.23,2.331-2.531c0-0.406-0.825-0.917-1.332-0.917
		c-0.44,0-1.311,0.374-2.95,2.159C355.6,142.705,354.84,143.728,354.614,144.371"/>
	<path fill="#0B314C" d="M397.796,151.382c-1.241,0-2.25-0.53-2.956-1.596c-0.653-0.946-0.948-2.071-0.948-3.432
		c0-0.412,0.238-1.242,0.711-2.546c0.533-1.359,0.768-2.128,0.768-2.305l-0.061-0.12c-1.419,1.124-2.542,2.129-3.428,3.017
		l-4.853,5.443c-2.546,2.723-4.2,4.081-4.972,4.081c-0.944,0-1.419-0.532-1.419-1.536c2.188-5.502,5.621-14.553,10.295-27.272
		c0.177-0.414,0.474-0.888,0.886-1.538c0.415-0.652,0.77-1.007,1.007-1.007c0.476,0,1.36,0.71,1.36,1.184
		c-5.62,14.969-8.754,23.19-9.466,24.789c3.376-3.608,5.326-5.619,5.739-6.034c2.898-2.78,5.086-4.142,6.447-4.142
		c0.889,0,1.481,1.125,1.481,2.013c0,0.294-0.414,1.418-1.185,3.253c-0.77,1.834-1.124,3.077-1.124,3.727
		c0,1.361,0.591,2.071,1.716,2.071c0.298,0,1.064-0.178,1.36-0.178c0.77,0,1.126,0.297,1.126,0.828
		C400.281,150.968,399.453,151.382,397.796,151.382"/>
	<path fill="#0B314C" d="M382.06,154.015c-0.987,0-1.508-0.561-1.508-1.626l0.006-0.033c2.326-5.844,5.885-15.273,10.293-27.269
		c0.176-0.414,0.456-0.865,0.896-1.557c0.442-0.696,0.806-1.046,1.082-1.046c0.512,0,1.45,0.747,1.45,1.271l-0.008,0.031
		c-5.324,14.188-8.3,21.992-9.268,24.328c3.222-3.443,5.013-5.285,5.396-5.667c2.842-2.728,5.093-4.167,6.51-4.167
		c0.972,0,1.568,1.225,1.568,2.101c0,0.304-0.39,1.38-1.189,3.287c-0.923,2.201-1.118,3.224-1.118,3.692
		c0,1.315,0.549,1.982,1.628,1.982c0.14,0,0.407-0.044,0.666-0.087c0.274-0.047,0.539-0.09,0.694-0.09
		c1.003,0,1.213,0.497,1.213,0.916c0,0.937-0.842,1.391-2.573,1.391c-1.288,0-2.309-0.552-3.032-1.636
		c-0.648-0.942-0.96-2.081-0.96-3.48c0-0.415,0.225-1.233,0.712-2.574c0.576-1.471,0.75-2.097,0.763-2.259
		c-1.282,1.021-2.405,2.011-3.337,2.943l-4.848,5.438C384.509,152.671,382.861,154.015,382.06,154.015 M380.727,152.404
		c0.007,0.952,0.456,1.433,1.333,1.433c0.741,0,2.391-1.363,4.903-4.055l4.852-5.44c0.96-0.962,2.116-1.979,3.442-3.027l0.084-0.069
		l0.118,0.256c0,0.222-0.297,1.12-0.774,2.341c-0.48,1.318-0.704,2.116-0.704,2.51c0,1.366,0.306,2.47,0.933,3.382
		c0.689,1.034,1.659,1.558,2.885,1.558c1.611,0,2.396-0.396,2.396-1.213c0-0.497-0.338-0.74-1.035-0.74
		c-0.142,0-0.408,0.046-0.666,0.089c-0.275,0.046-0.539,0.09-0.694,0.09c-1.18,0-1.804-0.747-1.804-2.161
		c0-0.698,0.391-1.997,1.129-3.763c0.974-2.315,1.177-3.028,1.177-3.219c0-0.801-0.527-1.921-1.39-1.921
		c-1.371,0-3.578,1.424-6.385,4.115c-0.498,0.497-2.554,2.627-5.735,6.033l-0.36,0.385l0.213-0.483
		c0.694-1.561,3.7-9.433,9.459-24.769c-0.021-0.428-0.851-1.076-1.272-1.076c-0.074,0-0.362,0.067-0.933,0.963
		c-0.433,0.685-0.709,1.129-0.88,1.527C386.613,137.133,383.054,146.558,380.727,152.404"/>
	<path fill="#0B314C" d="M417.257,146.945c-1.24,1.893-2.723,3.432-4.493,4.615c-2.014,1.358-4.025,2.012-6.037,2.012
		c-2.84,0-4.675-2.426-4.675-5.268c0-1.065,0.356-2.363,1.006-3.844c0.771-1.717,1.655-2.544,2.545-2.544
		c0.709,0,1.481,0.886,1.481,1.596l-1.539,2.603c-0.651,1.184-1.006,2.131-1.006,2.783c0,0.945,0.297,1.597,0.827,1.893
		c0.415,0.175,1.125,0.295,2.129,0.295c1.834,0,3.668-0.89,5.562-2.604c1.894-1.717,2.84-3.49,2.84-5.324
		c0-1.95-0.709-2.896-2.129-2.896c-0.71,0-1.538,0.413-2.427,1.3c-0.888,0.83-1.359,1.597-1.359,2.307
		c0,0.237,0.413,0.593,0.413,1.006c0,0.412-0.472,0.592-1.36,0.592c-0.886,0-1.36-0.592-1.36-1.774c0-1.362,0.65-2.661,1.893-3.905
		c1.243-1.301,2.545-1.952,3.903-1.952c2.132,0,4.261,1.893,4.439,3.963c0.237,0.474,0.355,1.006,0.355,1.538
		C418.262,144.756,417.905,145.941,417.257,146.945"/>
	<path fill="#0B314C" d="M406.727,153.66c-2.715,0-4.762-2.303-4.762-5.355c0-1.044,0.341-2.352,1.012-3.881
		c0.762-1.698,1.671-2.596,2.626-2.596c0.732,0,1.568,0.898,1.568,1.685v0.025l-0.013,0.021l-1.538,2.604
		c-0.658,1.196-0.994,2.117-0.994,2.736c0,0.901,0.271,1.529,0.783,1.814c0.426,0.182,1.171,0.284,2.085,0.284
		c1.786,0,3.587-0.845,5.502-2.58c1.866-1.689,2.812-3.459,2.812-5.26c0-1.889-0.667-2.809-2.04-2.809
		c-0.712,0-1.53,0.441-2.362,1.274c-0.888,0.829-1.337,1.582-1.337,2.247c0,0.073,0.074,0.193,0.153,0.318
		c0.116,0.188,0.261,0.423,0.261,0.686c0,0.681-1.089,0.681-1.448,0.681c-0.661,0-1.449-0.324-1.449-1.864
		c0-1.359,0.646-2.694,1.919-3.967c1.252-1.312,2.588-1.979,3.966-1.979c2.183,0,4.334,1.918,4.525,4.028
		c0.232,0.473,0.355,1.013,0.355,1.563c0,1.399-0.332,2.598-1.019,3.658c-1.277,1.944-2.756,3.463-4.521,4.638
		C410.822,152.979,408.775,153.66,406.727,153.66 M405.603,142.007c-0.882,0-1.73,0.86-2.463,2.49
		c-0.661,1.505-0.997,2.788-0.997,3.811c0,2.95,1.97,5.176,4.586,5.176c2.012,0,4.024-0.672,5.986-1.997
		c1.745-1.163,3.207-2.665,4.471-4.59c0.666-1.029,0.99-2.194,0.99-3.561c0-0.528-0.119-1.046-0.347-1.497l-0.009-0.033
		c-0.174-2.031-2.247-3.882-4.35-3.882c-1.326,0-2.618,0.647-3.838,1.925c-1.238,1.239-1.869,2.531-1.869,3.843
		c0,1.119,0.428,1.686,1.271,1.686c1.272,0,1.272-0.38,1.272-0.503c0-0.212-0.126-0.413-0.236-0.593
		c-0.096-0.153-0.177-0.285-0.177-0.413c0-0.724,0.453-1.499,1.387-2.371c0.865-0.865,1.729-1.326,2.488-1.326
		c1.473,0,2.217,1.005,2.217,2.987c0,1.852-0.965,3.665-2.868,5.391c-1.95,1.767-3.79,2.625-5.622,2.625
		c-0.951,0-1.702-0.105-2.161-0.304c-0.581-0.32-0.883-1.001-0.883-1.972c0-0.648,0.342-1.599,1.016-2.824l1.527-2.586
		C406.977,142.805,406.23,142.007,405.603,142.007"/>
	<path fill="#0B314C" d="M434.706,137.599l-4.732,0.709c-2.9,0.533-4.377,1.243-4.377,2.131c0,0.293,0.532,0.77,1.597,1.3
		c1.479,0.71,2.78,1.718,3.904,3.018c1.36,1.479,2.015,2.957,2.015,4.378c0,1.481-0.711,2.723-2.132,3.847
		c-1.421,1.123-2.898,1.656-4.438,1.656c-0.236,0-0.945-0.177-1.184-0.177c-1.123,0-2.247-0.356-3.371-1.006
		c-1.241-0.769-1.834-1.717-1.834-2.779c0-1.481,1.714-2.841,3.312-2.841c0.888,0,1.359,0.354,1.359,1.123
		c0,0.531-0.648,1.241-2.009,2.188c0.888,0.651,2.247,1.006,4.081,1.006c1.715,0,3.846-1.359,3.846-3.018
		c0-1.834-1.893-3.727-5.62-5.738c-1.599-0.829-2.426-2.012-2.426-3.55c0-1.124,1.243-2.13,3.787-2.898
		c2.012-0.652,3.785-1.007,5.324-1.007c1.952,0,2.958,0.474,3.018,1.422L434.706,137.599z"/>
	<path fill="#0B314C" d="M426.543,154.726c-0.126,0-0.36-0.044-0.607-0.09c-0.228-0.044-0.464-0.088-0.576-0.088
		c-1.099,0-2.249-0.342-3.415-1.017c-1.249-0.771-1.88-1.731-1.88-2.856c0-1.48,1.687-2.93,3.404-2.93
		c0.96,0,1.446,0.407,1.446,1.212c0,0.558-0.616,1.255-1.944,2.188c0.895,0.608,2.214,0.918,3.927,0.918
		c1.69,0,3.757-1.352,3.757-2.93c0-1.783-1.821-3.636-5.572-5.66c-1.641-0.851-2.471-2.07-2.471-3.628
		c0-1.189,1.33-2.221,3.848-2.983c2.1-0.679,3.851-1.01,5.351-1.01c1.999,0,3.044,0.507,3.105,1.504l0.002,0.024l-0.149,0.3
		l-4.779,0.716c-2.853,0.523-4.302,1.21-4.302,2.042c0,0.208,0.405,0.651,1.548,1.222c1.483,0.713,2.807,1.735,3.933,3.04
		c1.349,1.465,2.034,2.959,2.034,4.437c0,1.483-0.709,2.761-2.164,3.912C429.629,154.163,428.117,154.726,426.543,154.726
		 M423.467,147.923c-1.627,0-3.227,1.361-3.227,2.749c0,1.059,0.604,1.969,1.793,2.705c1.138,0.658,2.258,0.995,3.325,0.995
		c0.127,0,0.362,0.043,0.607,0.088c0.23,0.042,0.467,0.087,0.576,0.087c1.533,0,3.008-0.551,4.38-1.637
		c1.413-1.117,2.099-2.353,2.099-3.776c0-1.431-0.67-2.882-1.988-4.317c-1.112-1.288-2.415-2.296-3.878-2.998
		c-0.616-0.308-1.647-0.893-1.647-1.38c0-0.942,1.456-1.669,4.451-2.218l4.688-0.703l0.088-0.174
		c-0.072-0.871-1.056-1.314-2.928-1.314c-1.481,0-3.214,0.328-5.296,1.001c-2.439,0.737-3.727,1.712-3.727,2.815
		c0,1.483,0.801,2.652,2.378,3.473c3.813,2.059,5.666,3.961,5.666,5.815c0,1.721-2.15,3.104-3.933,3.104
		c-1.819,0-3.212-0.343-4.135-1.021l-0.1-0.073l0.102-0.07c1.328-0.925,1.975-1.616,1.975-2.116
		C424.739,148.26,424.322,147.923,423.467,147.923"/>
	<path fill="#0B314C" d="M445.827,139.67c-1.479,3.844-2.544,7.217-3.254,9.996c0.062,0.592,0.121,0.889,0.176,0.889
		c0.18,0,0.712-0.356,1.008-0.356s0.412,0.237,0.412,0.709c0,1.007-1.24,2.367-2.189,2.367c-1.182,0-1.772-0.889-1.772-2.603
		c0-1.241,0.412-3.017,1.182-5.266c1.006-2.898,1.539-4.675,1.657-5.326c-1.303-0.116-2.602-0.234-3.904-0.411
		c-1.834-0.297-2.722-0.947-2.722-1.953c0-0.533,0.354-0.829,1.124-0.829c0.294,0,0.708,0.119,1.124,0.296
		c0.474,0.177,2.072,0.296,4.791,0.414c0.354,0,0.593-0.12,0.651-0.296l4.142-12.779c0.472-1.479,1.005-2.485,1.596-3.018
		c0.949,0.412,1.424,0.946,1.424,1.598l-4.616,13.961c0.298,0,0.889-0.236,1.125-0.236h2.426c1.716,0,2.543,0.236,2.543,0.711
		c0,0.413-1.005,0.888-2.958,1.301L445.827,139.67z"/>
	<path fill="#0B314C" d="M441.98,153.365c-1.235,0-1.861-0.905-1.861-2.693c0-1.226,0.388-2.957,1.188-5.295
		c0.865-2.496,1.471-4.425,1.635-5.214c-1.242-0.114-2.523-0.232-3.812-0.408c-1.856-0.298-2.796-0.986-2.796-2.039
		c0-0.419,0.211-0.918,1.211-0.918c0.294,0,0.703,0.108,1.159,0.303c0.424,0.159,1.849,0.28,4.761,0.41
		c0.299,0,0.515-0.092,0.563-0.237l4.142-12.779c0.475-1.485,1.021-2.515,1.622-3.055l0.043-0.038l0.054,0.024
		c0.978,0.428,1.473,0.99,1.473,1.679l-0.005,0.025l-4.573,13.834c0.138-0.022,0.312-0.07,0.469-0.113
		c0.21-0.06,0.405-0.111,0.528-0.111h2.426c1.796,0,2.633,0.252,2.633,0.799c0,0.617-1.647,1.095-3.03,1.387l-3.915,0.819
		c-1.375,3.575-2.459,6.915-3.229,9.93c0.054,0.545,0.101,0.725,0.122,0.785c0.071-0.019,0.2-0.076,0.312-0.13
		c0.221-0.104,0.473-0.218,0.657-0.218c0.452,0,0.505,0.454,0.505,0.796C444.261,151.965,442.96,153.365,441.98,153.365
		 M437.544,136.979c-0.697,0-1.035,0.241-1.035,0.739c0,0.968,0.865,1.578,2.646,1.865c1.318,0.177,2.631,0.298,3.9,0.413
		l0.097,0.01l-0.018,0.096c-0.135,0.741-0.741,2.688-1.661,5.338c-0.794,2.316-1.178,4.029-1.178,5.235
		c0,1.669,0.566,2.515,1.685,2.515c0.882,0,2.102-1.321,2.102-2.279c0-0.547-0.166-0.62-0.326-0.62
		c-0.147,0-0.389,0.114-0.582,0.202c-0.202,0.096-0.33,0.153-0.424,0.153c-0.104,0-0.173-0.066-0.266-0.967l-0.002-0.017
		l0.006-0.017c0.774-3.036,1.87-6.403,3.256-10.007l0.018-0.045l0.048-0.011l3.963-0.828c2.126-0.452,2.888-0.923,2.888-1.214
		c0-0.282-0.427-0.622-2.454-0.622h-2.426c-0.1,0-0.294,0.054-0.481,0.107c-0.231,0.063-0.474,0.128-0.644,0.128h-0.121l0.037-0.117
		l4.61-13.946c-0.006-0.593-0.45-1.09-1.314-1.479c-0.558,0.53-1.073,1.517-1.528,2.937l-4.144,12.782
		c-0.072,0.222-0.349,0.356-0.736,0.356c-2.976-0.129-4.37-0.25-4.822-0.42C438.208,137.082,437.811,136.979,437.544,136.979"/>
	<path fill="#0B314C" d="M457.657,141.325c0.059,0.948-0.296,2.307-1.065,4.142c-0.411,0.888-1.006,2.248-1.655,4.082
		c-0.179,1.066-0.592,2.485-1.124,4.26c-0.179,0.355-0.475,0.532-0.947,0.532c-0.767,0.059-1.184-0.413-1.24-1.422
		c-0.06-0.945,1.183-4.733,3.728-11.299c0.174-0.412,0.471-0.77,0.888-1.182c0.412,0,0.826,0.236,1.36,0.709
		C457.657,141.208,457.657,141.267,457.657,141.325 M459.374,136.118c-0.356,0.889-0.708,1.36-1.125,1.421
		c-0.533,0-1.479-1.005-1.536-1.655c-0.061-1.007,0.708-3.019,1.598-3.019c0.944-0.06,1.478,0.412,1.536,1.358
		C459.847,134.699,459.669,135.351,459.374,136.118"/>
	<path fill="#0B314C" d="M452.742,154.435c-0.744,0-1.15-0.507-1.207-1.509c-0.061-0.973,1.194-4.788,3.733-11.338
		c0.162-0.383,0.427-0.734,0.906-1.214l0.025-0.024h0.037c0.415,0,0.841,0.218,1.42,0.731c0.089,0.091,0.089,0.179,0.089,0.246
		c0.06,0.946-0.29,2.312-1.072,4.174c-0.575,1.233-1.134,2.604-1.653,4.077c-0.177,1.056-0.596,2.492-1.124,4.256
		c-0.203,0.406-0.538,0.595-1.033,0.595C452.827,154.433,452.785,154.435,452.742,154.435 M456.273,140.529
		c-0.447,0.448-0.692,0.776-0.843,1.126c-3.148,8.128-3.761,10.61-3.72,11.262c0.059,0.955,0.438,1.384,1.146,1.335
		c0.439,0,0.708-0.149,0.873-0.484c0.523-1.742,0.941-3.171,1.117-4.233c0.529-1.494,1.087-2.869,1.665-4.104
		c0.768-1.832,1.111-3.174,1.057-4.1c0-0.061-0.003-0.088-0.035-0.12C457.016,140.748,456.634,140.541,456.273,140.529
		 M458.255,137.628h-0.006c-0.589,0-1.562-1.039-1.627-1.738c-0.043-0.761,0.364-2.094,0.979-2.742
		c0.231-0.246,0.468-0.369,0.706-0.369c0.049-0.003,0.104-0.004,0.155-0.004c0.892,0,1.415,0.512,1.473,1.446
		c0,0.464-0.155,1.093-0.478,1.932c-0.386,0.957-0.752,1.413-1.195,1.476H458.255z M458.463,132.951
		c-0.048,0-0.098,0.002-0.15,0.002c-0.192,0-0.387,0.107-0.582,0.315c-0.574,0.609-0.973,1.902-0.931,2.61
		c0.051,0.583,0.953,1.564,1.442,1.573c0.366-0.057,0.697-0.491,1.048-1.365c0.313-0.816,0.465-1.424,0.465-1.861
		C459.705,133.382,459.268,132.951,458.463,132.951"/>
	<path fill="#0B314C" d="M477.653,150.555c-1.243,0-2.25-0.532-2.958-1.655c-0.65-0.947-0.947-2.071-0.947-3.433
		c0-0.296,0.298-1.24,0.829-2.723c0.592-1.478,0.888-2.306,0.888-2.482c-1.717,1.358-2.957,2.425-3.726,3.252l-4.852,5.503
		c-2.484,2.662-4.141,4.022-4.971,4.022c-0.946,0-1.421-0.533-1.421-1.538c1.065-2.78,2.724-6.863,4.972-12.306
		c0.708-1.717,1.301-2.543,1.833-2.543c0.473,0,1.361,0.65,1.361,1.124c0,0.06-1.241,3.074-3.667,8.991l0.295,0.237
		c3.312-3.551,5.089-5.445,5.385-5.68c2.662-2.544,4.73-3.847,6.093-3.847c0.888,0,1.48,1.124,1.48,2.014
		c0,0.295-0.414,1.419-1.184,3.252c-0.769,1.834-1.126,3.077-1.126,3.727c0,1.363,0.593,2.071,1.717,2.071
		c0.297,0,1.065-0.177,1.362-0.177c0.769,0,1.124,0.297,1.124,0.828C480.14,150.081,479.311,150.555,477.653,150.555"/>
	<path fill="#0B314C" d="M461.917,153.128c-0.988,0-1.509-0.562-1.509-1.627l0.007-0.031c0.99-2.591,2.523-6.387,4.969-12.309
		c0.733-1.772,1.343-2.598,1.918-2.598c0.537,0,1.45,0.688,1.45,1.213c0,0.062-0.252,0.675-2.669,6.572l-0.982,2.393l0.179,0.144
		c3.53-3.781,5.051-5.4,5.336-5.627c2.683-2.562,4.754-3.864,6.15-3.864c0.973,0,1.568,1.222,1.568,2.1
		c0,0.305-0.389,1.38-1.191,3.287c-0.921,2.2-1.117,3.224-1.117,3.692c0,1.317,0.551,1.982,1.628,1.982
		c0.14,0,0.407-0.045,0.667-0.088c0.275-0.046,0.539-0.089,0.695-0.089c1.001,0,1.211,0.498,1.211,0.916
		c0,0.66-0.446,1.45-2.573,1.45c-1.303,0-2.322-0.57-3.035-1.697c-0.646-0.94-0.957-2.079-0.957-3.479
		c0-0.296,0.264-1.17,0.834-2.751c0.526-1.318,0.744-1.941,0.828-2.23c-1.733,1.384-2.824,2.342-3.521,3.09l-4.85,5.501
		C464.407,151.804,462.761,153.128,461.917,153.128 M460.584,151.519c0.008,0.95,0.457,1.432,1.334,1.432
		c0.78,0,2.431-1.344,4.904-3.994l4.851-5.5c0.728-0.787,1.879-1.792,3.737-3.267l0.144-0.113v0.185c0,0.12-0.091,0.515-0.895,2.517
		c-0.546,1.515-0.822,2.42-0.822,2.688c0,1.364,0.307,2.47,0.932,3.382c0.679,1.073,1.647,1.617,2.886,1.617
		c1.591,0,2.396-0.43,2.396-1.272c0-0.498-0.34-0.741-1.034-0.741c-0.143,0-0.408,0.045-0.667,0.091
		c-0.276,0.045-0.54,0.089-0.695,0.089c-1.18,0-1.803-0.748-1.803-2.162c0-0.697,0.391-1.997,1.129-3.762
		c0.973-2.314,1.177-3.028,1.177-3.218c0-0.804-0.529-1.924-1.389-1.924c-1.333,0-3.418,1.323-6.035,3.82
		c-0.306,0.246-2.329,2.405-5.377,5.677l-0.06,0.061l-0.411-0.329l1.031-2.517c1.691-4.123,2.624-6.396,2.658-6.523
		c-0.002-0.397-0.835-1.017-1.273-1.017c-0.485,0-1.058,0.814-1.751,2.489C463.107,145.139,461.577,148.932,460.584,151.519"/>
	<path fill="#0B314C" d="M498.417,144.7c-0.235,0.649-0.652,1.654-1.241,2.956l-3.136,5.857c-2.068,3.963-3.254,6.15-3.431,6.448
		c-1.241,2.129-2.604,4.14-4.143,6.033c-0.472,0.652-1.36,0.946-2.721,0.946c-1.598,0-2.957-0.946-4.083-2.781
		c-1.004-1.656-1.536-3.312-1.536-5.028c0-1.063,0.296-1.597,0.945-1.597c0.533,0,0.949,1.125,1.243,3.313
		c0.061,0.649,0.474,1.479,1.24,2.485c0.77,1.063,1.424,1.597,2.014,1.597c1.362,0,3.492-2.663,6.33-7.986
		c0.828-1.537,2.188-4.319,4.142-8.282c-0.533,0.591-1.421,1.419-2.66,2.425c-2.309,1.538-4.023,2.306-5.209,2.306
		c-1.419,0-2.425-0.59-3.075-1.716c-0.533-0.945-0.711-2.129-0.592-3.549c0.77-6.804,4.731-11.418,10.115-11.418
		c2.073,0,3.729,1.832,3.729,3.904c0,2.012-0.414,3.018-1.184,3.018c-0.89,0-1.301-0.413-1.301-1.239c0-1.361-0.12-2.31-0.415-2.842
		c-0.412-0.297-0.887-0.474-1.539-0.474c-2.955,0-5.264,2.897-6.92,8.695c-0.059,0.414-0.12,0.77-0.12,1.185
		c0,1.241,0.473,1.895,1.421,1.895c1.715,0,4.732-1.952,8.992-5.917l1.42-1.715c0.77-0.891,1.303-1.302,1.597-1.302
		c0.711,0,1.065,0.411,1.065,1.184L498.417,144.7z"/>
	<path fill="#0B314C" d="M483.746,167.031c-1.611,0-3.01-0.948-4.157-2.823c-1.045-1.721-1.552-3.379-1.552-5.074
		c0-1.135,0.338-1.685,1.035-1.685c0.588,0,1.023,1.106,1.333,3.387c0.056,0.637,0.469,1.458,1.223,2.444
		c0.761,1.053,1.396,1.563,1.94,1.563c0.921,0,2.753-1.378,6.253-7.94c0.739-1.374,1.913-3.757,3.537-7.055l0.346-0.701
		c-0.468,0.469-1.188,1.134-2.27,2.01c-2.351,1.568-4.068,2.326-5.263,2.326c-1.416,0-2.476-0.59-3.153-1.759
		c-0.528-0.943-0.726-2.117-0.604-3.602c0.382-3.378,1.542-6.252,3.35-8.313c1.832-2.084,4.202-3.187,6.856-3.187
		c2.067,0,3.814,1.828,3.814,3.995c0,2.06-0.427,3.104-1.271,3.104c-0.923,0-1.391-0.447-1.391-1.33
		c0-1.398-0.124-2.282-0.393-2.781c-0.433-0.302-0.899-0.443-1.472-0.443c-2.9,0-5.199,2.902-6.836,8.631l-0.017,0.125
		c-0.054,0.36-0.099,0.673-0.099,1.033c0,1.196,0.448,1.804,1.331,1.804c1.726,0,4.731-1.979,8.933-5.892l1.412-1.706
		c0.767-0.889,1.326-1.335,1.665-1.335c0.755,0,1.154,0.439,1.154,1.273v0.024l-0.013,0.021l-0.946,1.598
		c-0.258,0.712-0.7,1.766-1.238,2.947l-3.137,5.863c-2.016,3.858-3.24,6.131-3.433,6.453c-1.305,2.235-2.66,4.213-4.149,6.044
		C486.05,166.72,485.165,167.031,483.746,167.031 M479.072,157.625c-0.369,0-0.858,0.154-0.858,1.507
		c0,1.663,0.501,3.293,1.526,4.981c1.112,1.819,2.461,2.739,4.006,2.739c1.355,0,2.197-0.289,2.648-0.909
		c1.483-1.826,2.836-3.796,4.138-6.029c0.19-0.318,1.414-2.588,3.428-6.441l3.136-5.859c0.532-1.174,0.973-2.222,1.236-2.945
		l0.943-1.59c-0.009-0.709-0.336-1.07-0.978-1.07c-0.159,0-0.57,0.165-1.53,1.271l-1.418,1.712c-4.244,3.954-7.29,5.951-9.062,5.951
		c-0.688,0-1.507-0.345-1.507-1.983c0-0.373,0.049-0.705,0.099-1.059l0.021-0.137c1.662-5.824,4.02-8.771,7.009-8.771
		c0.618,0,1.125,0.156,1.591,0.489l0.023,0.028c0.292,0.522,0.426,1.438,0.426,2.885c0,0.786,0.388,1.152,1.215,1.152
		c0.904,0,1.094-1.593,1.094-2.928c0-2.069-1.666-3.815-3.638-3.815c-5.313,0-9.251,4.45-10.027,11.338
		c-0.121,1.444,0.067,2.589,0.579,3.499c0.652,1.122,1.633,1.669,2.999,1.669c1.157,0,2.843-0.751,5.157-2.293
		c1.126-0.912,2.067-1.771,2.646-2.411l0.43-0.475l-0.887,1.8c-1.624,3.3-2.8,5.685-3.54,7.062c-2.843,5.328-5,8.031-6.409,8.031
		c-0.615,0-1.276-0.52-2.083-1.633c-0.773-1.013-1.196-1.863-1.26-2.53C479.865,158.186,479.398,157.625,479.072,157.625"/>
</g>
</svg>
